<?xml version="1.0" encoding="UTF-8" standalone="no"?>
<svg
   xmlns:dc="http://purl.org/dc/elements/1.1/"
   xmlns:cc="http://creativecommons.org/ns#"
   xmlns:rdf="http://www.w3.org/1999/02/22-rdf-syntax-ns#"
   xmlns:svg="http://www.w3.org/2000/svg"
   xmlns="http://www.w3.org/2000/svg"
   xmlns:sodipodi="http://sodipodi.sourceforge.net/DTD/sodipodi-0.dtd"
   xmlns:inkscape="http://www.inkscape.org/namespaces/inkscape"
   version="1.0"
   width="16.89016mm"
   height="12.417105mm"
   id="svg31"
   sodipodi:docname="kuva.svg"
   inkscape:version="1.0.2 (e86c8708, 2021-01-15)">
  <metadata
     id="metadata35">
    <rdf:RDF>
      <cc:Work
         rdf:about="">
        <dc:format>image/svg+xml</dc:format>
        <dc:type
           rdf:resource="http://purl.org/dc/dcmitype/StillImage" />
        <dc:title></dc:title>
      </cc:Work>
    </rdf:RDF>
  </metadata>
  <sodipodi:namedview
     pagecolor="#ffffff"
     bordercolor="#666666"
     borderopacity="1"
     objecttolerance="10"
     gridtolerance="10"
     guidetolerance="10"
     inkscape:pageopacity="0"
     inkscape:pageshadow="2"
     inkscape:window-width="1391"
     inkscape:window-height="801"
     id="namedview33"
     showgrid="false"
     inkscape:zoom="0.5770544"
     inkscape:cx="-77.510797"
     inkscape:cy="-52.615519"
     inkscape:window-x="322"
     inkscape:window-y="99"
     inkscape:window-maximized="0"
     inkscape:current-layer="svg31"
     showborder="true"
     fit-margin-top="0"
     fit-margin-left="0"
     fit-margin-right="0"
     fit-margin-bottom="0" />
  <defs
     id="defs11">
    <pattern
       id="WMFhbasepattern"
       patternUnits="userSpaceOnUse"
       width="6"
       height="6"
       x="0"
       y="0" />
  </defs>
  <path
     style="fill:#0072b5;fill-opacity:1;fill-rule:evenodd;stroke:none;stroke-width:0.312274"
     d="M 0.0801338,46.792756 V 0.13803182 H 63.75671 V 46.792756 Z"
     id="path13" />
  <path
     style="fill:#0072b5;fill-opacity:1;fill-rule:nonzero;stroke:none;stroke-width:0.312274"
     d="M 4e-7,46.792756 V 0.13803182 H 0.1602759 V 46.792756 Z m 0,-46.65472418 V 0 h 0.080125 V 0.13803182 Z M 0.080125,0 H 63.756701 V 0.27606365 H 0.080125 Z m 63.676576,0 h 0.08012 v 0.13803182 h -0.08012 z m 0.08012,0.13803182 V 46.792756 H 63.676559 V 0.13803182 Z m 0,46.65472418 v 0.138032 h -0.08012 v -0.138032 z m -0.08012,0.138032 H 0.080125 v -0.276064 h 63.676576 z m -63.676576,0 H 0 v -0.138032 h 0.080125 z"
     id="path15" />
  <path
     style="fill:#ffffff;fill-opacity:1;fill-rule:evenodd;stroke:none;stroke-width:0.312274"
     d="M 0.0801338,4.803509 0.1923257,3.3955781 0.5128767,2.1809044 1.0578029,1.1594641 1.4905371,0.69015911 2.2598561,0.22085409 3.1253331,0.13803182 H 60.983978 l 0.817403,0.19324932 0.705201,0.55211935 0.432735,0.66255431 0.480817,1.0214323 0.272468,1.2975039 0.0641,1.407923 v 36.38516 l -0.0641,1.407923 -0.272468,1.297496 -0.480817,1.131859 -0.657118,0.828191 -1.025753,0.469313 H 2.5162901 L 2.0354721,46.709934 1.4905371,46.323443 1.0578029,45.771316 0.6731434,45.108769 0.4167097,44.363393 0.1923257,43.53521 0.0801338,42.872656 Z"
     id="path17" />
  <path
     style="fill:#0072b5;fill-opacity:1;fill-rule:evenodd;stroke:none;stroke-width:0.312274"
     d="M 1.4424531,4.4170183 1.5546541,3.864891 1.9232801,3.0367001 2.3560141,2.5673871 2.7887571,2.456968 H 61.208362 l 0.368635,0.1932414 0.336567,0.3864907 0.208359,0.469305 0.160276,0.6349496 0.0641,0.6625543 V 42.51377 l -0.112192,0.634949 -0.224384,0.579732 -0.256433,0.469305 -0.38466,0.276064 -0.384659,0.08282 H 2.7887481 l -0.368634,-0.08282 -0.384651,-0.276064 -0.272467,-0.469305 -0.208351,-0.579732 -0.1122,-0.634949 z"
     id="path19" />
  <path
     style="fill:#ffffff;fill-opacity:1;fill-rule:evenodd;stroke:none;stroke-width:0.312274"
     d="m 7.1321591,15.542371 h 2.708623 l 0.1602669,-1.021433 0.320551,-1.049045 0.336567,-0.469305 0.368635,-0.358886 0.432734,-0.193241 0.657127,0.110427 0.593009,0.4417 0.480818,0.855796 0.272467,1.02144 v 2.346541 l -0.160275,1.104255 -0.272468,0.552127 -0.480817,0.745369 -0.657118,0.303668 h -0.913561 v 4.472228 h 0.913561 l 0.705201,0.276064 0.76931,0.93861 0.480818,1.407931 0.112192,1.214673 v 2.595 l -0.112192,0.855796 -0.320542,1.104254 -0.496852,0.855796 -0.641093,0.552127 -0.496842,0.193242 -0.705202,-0.110427 -0.641093,-0.469305 -0.38466,-0.469305 -0.3205419,-0.552128 -0.320551,-1.104254 -0.112192,-1.214682 h -2.708614 l 0.112192,1.57356 0.09616,0.938618 0.272467,1.214681 0.38466,1.104255 0.705201,1.407923 0.913552,1.214682 1.0257529,0.745368 1.089861,0.386491 1.137936,-0.110427 1.089861,-0.469305 0.977669,-0.911013 0.865468,-1.214682 0.641093,-1.601164 0.544935,-2.429364 0.112192,-3.174724 -0.112192,-2.788241 -0.384659,-1.766809 -0.528901,-1.683986 -0.544926,-0.938618 0.641093,-1.490738 0.496842,-2.981482 V 15.542371 L 16.171581,14.327697 15.899113,12.560888 15.370212,10.959724 14.665019,9.6622196 13.735425,8.6407873 12.38913,7.8954187 h -1.410403 l -1.0257439,0.4417002 -0.929586,0.938618 -0.817402,1.2146741 -0.59301,1.490745 -0.320542,1.794414 z"
     id="path21" />
  <path
     style="fill:#ffffff;fill-opacity:1;fill-rule:evenodd;stroke:none;stroke-width:0.312274"
     d="m 29.346037,7.7849916 h -3.4619 l -0.977669,2.1532917 -0.977669,2.3189367 -0.977669,2.815846 -0.817394,2.98149 -0.544926,3.091902 -0.368626,4.002923 -0.0641,3.533617 0.112192,3.450788 0.496842,2.429355 0.865477,2.070478 0.913561,1.104254 1.36232,1.049045 1.458486,0.276064 1.089862,-0.276064 1.025743,-0.772981 0.913561,-1.021432 0.544926,-0.938618 0.817394,-2.125687 0.368634,-3.09191 v -2.236114 l -0.208358,-1.877236 -0.657118,-2.318928 -0.705201,-1.407923 -0.913561,-1.214682 -0.977669,-0.745368 -1.458487,-0.358886 -1.137936,0.165636 -0.705201,0.386491 0.432734,-1.96005 1.137944,-4.113342 1.025744,-2.236122 z"
     id="path23" />
  <path
     style="fill:#0072b5;fill-opacity:1;fill-rule:evenodd;stroke:none;stroke-width:0.312274"
     d="m 26.413038,25.342622 0.929586,0.552127 0.705201,1.021441 0.368626,1.490745 0.0641,0.855796 v 1.96005 l -0.432734,1.490737 -0.705202,1.104255 -0.657127,0.469305 -0.753276,0.110427 -0.705211,-0.303669 -0.593009,-0.745368 -0.432735,-0.911013 -0.272467,-1.214674 -0.0641,-2.429363 0.224384,-1.13186 0.59301,-1.297496 0.59301,-0.745376 0.432743,-0.193242 z"
     id="path25" />
  <path
     style="fill:#ffffff;fill-opacity:1;fill-rule:evenodd;stroke:none;stroke-width:0.311863"
     d="m 34.651083,18.027873 h 2.708623 v -1.569428 l 0.224375,-1.679568 0.59301,-1.321621 0.641102,-0.63328 1.041769,-0.192733 0.91356,0.468073 0.705202,1.211487 0.320542,1.211496 0.0641,1.67956 -0.432743,1.569428 -6.779558,15.556626 v 4.653224 H 44.57198 V 34.327913 H 38.016807 L 43.594311,21.55221 44.299513,19.321968 44.57198,17.5598 44.507881,14.944084 44.187338,13.181908 43.434053,11.034274 42.937202,10.12566 42.02365,8.9967729 40.997897,8.253359 39.908036,7.8954187 38.818184,8.0606182 37.744348,8.5286996 36.49422,9.8503199 35.516551,11.695088 34.971625,13.374657 34.715182,15.24695 Z"
     id="path27" />
  <path
     style="fill:#ffffff;fill-opacity:1;fill-rule:evenodd;stroke:none;stroke-width:0.312274"
     d="m 48.466641,18.054556 h 2.708614 v -1.573567 l 0.224384,-1.683987 0.59301,-1.325109 0.657127,-0.634941 1.025744,-0.19325 0.91356,0.469313 0.76931,1.214682 0.256434,1.214674 0.0641,1.683994 -0.432743,1.57356 -6.779558,15.59758 v 4.665477 h 9.968999 v -4.665477 h -6.555183 l 5.52943,-12.809339 0.705202,-2.236114 0.272467,-1.766809 -0.04807,-2.622605 L 58.067,13.19583 57.29769,11.042538 56.752764,10.131533 55.839203,8.9996733 54.861543,8.2542966 53.723598,7.8954187 l -1.073827,0.1656366 -1.041778,0.469305 -1.298211,1.3251087 -0.977669,1.849623 -0.52891,1.683987 -0.272459,1.877228 z"
     id="path29" />
</svg>
